<svg width="26" height="24" viewBox="0 0 26 24" fill="none" xmlns="http://www.w3.org/2000/svg">
<path d="M14.9246 9.65V8.45C15.5057 8.21667 16.1 8.04167 16.7076 7.925C17.3151 7.80833 17.9535 7.75 18.6227 7.75C19.0805 7.75 19.5296 7.78333 19.9699 7.85C20.4101 7.91667 20.8416 8 21.2642 8.1V9.2C20.8416 9.05 20.4145 8.9375 19.9831 8.8625C19.5516 8.7875 19.0982 8.75 18.6227 8.75C17.9535 8.75 17.3107 8.82917 16.6944 8.9875C16.078 9.14583 15.4881 9.36667 14.9246 9.65ZM14.9246 15.15V13.925C15.5057 13.7 16.1 13.5313 16.7076 13.4188C17.3151 13.3063 17.9535 13.25 18.6227 13.25C19.0805 13.25 19.5296 13.2833 19.9699 13.35C20.4101 13.4167 20.8416 13.5 21.2642 13.6V14.7C20.8416 14.55 20.4145 14.4375 19.9831 14.3625C19.5516 14.2875 19.0982 14.25 18.6227 14.25C17.9535 14.25 17.3107 14.325 16.6944 14.475C16.078 14.625 15.4881 14.85 14.9246 15.15ZM14.9246 12.4V11.2C15.5057 10.9667 16.1 10.7917 16.7076 10.675C17.3151 10.5583 17.9535 10.5 18.6227 10.5C19.0805 10.5 19.5296 10.5333 19.9699 10.6C20.4101 10.6667 20.8416 10.75 21.2642 10.85V11.95C20.8416 11.8 20.4145 11.6875 19.9831 11.6125C19.5516 11.5375 19.0982 11.5 18.6227 11.5C17.9535 11.5 17.3107 11.5792 16.6944 11.7375C16.078 11.8958 15.4881 12.1167 14.9246 12.4ZM6.68306 16.5C7.62636 16.5 8.54458 16.6042 9.43771 16.8125C10.3308 17.0208 11.2088 17.3333 12.0717 17.75V7.075C11.2793 6.575 10.4197 6.1875 9.49313 5.9125C8.56652 5.6375 7.62983 5.5 6.68306 5.5C6.01388 5.5 5.3579 5.57917 4.71514 5.7375C4.07237 5.89583 3.4252 6.09167 2.77363 6.325V17.175C3.31954 16.9417 3.94029 16.7708 4.63589 16.6625C5.33149 16.5542 6.01388 16.5 6.68306 16.5ZM13.6566 17.75C14.5371 17.3333 15.4 17.0208 16.2453 16.8125C17.0906 16.6042 17.9887 16.5 18.9397 16.5C19.6088 16.5 20.3 16.55 21.0133 16.65C21.7265 16.75 22.3384 16.8833 22.8491 17.05V6.325C22.2504 6.04167 21.618 5.83333 20.9519 5.7C20.2858 5.56667 19.6151 5.5 18.9397 5.5C17.9887 5.5 17.0686 5.6375 16.1793 5.9125C15.29 6.1875 14.4491 6.575 13.6566 7.075V17.75ZM12.8642 20C11.9661 19.3667 10.9887 18.8792 9.93212 18.5375C8.87551 18.1958 7.79249 18.025 6.68306 18.025C6.03964 18.025 5.40772 18.1 4.7873 18.25C4.16686 18.4 3.54847 18.5833 2.93212 18.8C2.52532 18.9833 2.13306 18.9583 1.75532 18.725C1.37759 18.4917 1.18872 18.1583 1.18872 17.725V6.15C1.18872 5.9 1.25036 5.67083 1.37363 5.4625C1.4969 5.25417 1.6818 5.09167 1.92834 4.975C2.66797 4.64167 3.43748 4.39583 4.23689 4.2375C5.03628 4.07917 5.85167 4 6.68306 4C7.79249 4 8.87111 4.14167 9.91891 4.425C10.9667 4.70833 11.9485 5.14167 12.8642 5.725C13.7623 5.14167 14.7265 4.70833 15.7566 4.425C16.7868 4.14167 17.8478 4 18.9397 4C19.765 4 20.5745 4.07917 21.3681 4.2375C22.1617 4.39583 22.9283 4.64167 23.668 4.975C23.9145 5.09167 24.1038 5.25417 24.2359 5.4625C24.368 5.67083 24.434 5.9 24.434 6.15V17.725C24.434 18.1899 24.2359 18.5436 23.8397 18.7862C23.4434 19.0287 23.0516 19.0333 22.6642 18.8C22.0655 18.5667 21.4559 18.3792 20.8354 18.2375C20.215 18.0958 19.5831 18.025 18.9397 18.025C17.8302 18.025 16.7648 18.2 15.7434 18.55C14.7221 18.9 13.7623 19.3833 12.8642 20Z" fill="#7C03C7"/>
</svg>
