<svg width="26" height="24" viewBox="0 0 26 24" fill="none" xmlns="http://www.w3.org/2000/svg">
<path d="M12.6793 22L17.4604 10H19.6265L24.5397 22H22.2416L21.1585 18.85H16.0868L14.8453 22H12.6793ZM16.668 17.1H20.4189L18.5699 12.25H18.517L16.668 17.1ZM4.35853 19L2.9057 17.625L8.29438 12.525C7.6252 11.7917 7.03086 11.0542 6.51136 10.3125C5.99187 9.57083 5.53841 8.8 5.15098 8H7.4491C7.74847 8.55 8.07866 9.07083 8.43966 9.5625C8.80067 10.0542 9.2101 10.5583 9.66797 11.075C10.4604 10.2917 11.1208 9.47917 11.6491 8.6375C12.1774 7.79583 12.6265 6.91667 12.9963 6H1.18872V4H8.58495V2H10.6982V4H18.0944V6H15.1095C14.7221 7.15 14.207 8.27917 13.5642 9.3875C12.9214 10.4958 12.1334 11.55 11.2 12.55L13.7887 15.025L12.9963 17.05L9.64155 14L4.35853 19Z" fill="#7C03C7"/>
</svg>
