<svg width="484" height="41" viewBox="0 0 484 41" fill="none" xmlns="http://www.w3.org/2000/svg">
<path d="M21.64 40L19.912 32.848H10.216L8.53598 40H0.375977L10.408 6.736H19.96L29.992 40H21.64ZM11.56 27.136H18.568L15.064 12.448L11.56 27.136Z" fill="#141414"/>
<path d="M47.2165 13.696C49.4245 13.696 51.1525 14.368 52.4005 15.712C53.6485 17.056 54.2725 18.944 54.2725 21.376V40H46.6885V22.672C46.6885 21.392 46.4805 20.512 46.0645 20.032C45.6805 19.52 45.0885 19.264 44.2885 19.264C42.7525 19.264 41.2805 20.368 39.8725 22.576V40H32.2885V14.512H38.9125L39.4405 17.536C40.5285 16.256 41.6965 15.296 42.9445 14.656C44.2245 14.016 45.6485 13.696 47.2165 13.696Z" fill="#141414"/>
<path d="M75.9756 38.8C75.0476 39.44 73.9596 39.936 72.7116 40.288C71.4956 40.64 70.2796 40.816 69.0636 40.816C63.4956 40.784 60.7116 37.712 60.7116 31.6V19.792H57.1116V14.512H60.7116V8.992L68.2956 8.128V14.512H74.1516L73.3356 19.792H68.2956V31.504C68.2956 32.688 68.4876 33.536 68.8716 34.048C69.2556 34.56 69.8636 34.816 70.6956 34.816C71.5596 34.816 72.4716 34.544 73.4316 34L75.9756 38.8Z" fill="#141414"/>
<path d="M88.7035 13.696C92.6075 13.696 95.6635 14.896 97.8715 17.296C100.079 19.664 101.183 22.992 101.183 27.28C101.183 30 100.671 32.384 99.6475 34.432C98.6555 36.448 97.2155 38.016 95.3275 39.136C93.4715 40.256 91.2635 40.816 88.7035 40.816C84.8315 40.816 81.7755 39.632 79.5355 37.264C77.3275 34.864 76.2235 31.52 76.2235 27.232C76.2235 24.512 76.7195 22.144 77.7115 20.128C78.7355 18.08 80.1755 16.496 82.0315 15.376C83.9195 14.256 86.1435 13.696 88.7035 13.696ZM88.7035 19.264C87.1675 19.264 86.0155 19.92 85.2475 21.232C84.4795 22.512 84.0955 24.512 84.0955 27.232C84.0955 30.016 84.4635 32.048 85.1995 33.328C85.9675 34.608 87.1355 35.248 88.7035 35.248C90.2395 35.248 91.3915 34.608 92.1595 33.328C92.9275 32.016 93.3115 30 93.3115 27.28C93.3115 24.496 92.9275 22.464 92.1595 21.184C91.4235 19.904 90.2715 19.264 88.7035 19.264ZM82.2715 10.24L79.5835 7.12L86.3515 0.543999H91.0075L97.7755 7.12L95.0875 10.24L88.7035 5.824L82.2715 10.24Z" fill="#141414"/>
<path d="M120.623 13.696C122.831 13.696 124.559 14.368 125.807 15.712C127.055 17.056 127.679 18.944 127.679 21.376V40H120.095V22.672C120.095 21.392 119.887 20.512 119.471 20.032C119.087 19.52 118.495 19.264 117.695 19.264C116.159 19.264 114.687 20.368 113.279 22.576V40H105.695V14.512H112.319L112.847 17.536C113.935 16.256 115.103 15.296 116.351 14.656C117.631 14.016 119.055 13.696 120.623 13.696Z" fill="#141414"/>
<path d="M140.982 14.512V40H133.398V14.512H140.982ZM137.142 1.072C138.454 1.072 139.526 1.488 140.358 2.32C141.222 3.12 141.654 4.144 141.654 5.392C141.654 6.64 141.222 7.68 140.358 8.512C139.526 9.312 138.454 9.712 137.142 9.712C135.83 9.712 134.758 9.312 133.926 8.512C133.094 7.68 132.678 6.64 132.678 5.392C132.678 4.144 133.094 3.12 133.926 2.32C134.758 1.488 135.83 1.072 137.142 1.072Z" fill="#141414"/>
<path d="M157.985 13.696C161.889 13.696 164.945 14.896 167.153 17.296C169.361 19.664 170.465 22.992 170.465 27.28C170.465 30 169.953 32.384 168.929 34.432C167.937 36.448 166.497 38.016 164.609 39.136C162.753 40.256 160.545 40.816 157.985 40.816C154.113 40.816 151.057 39.632 148.817 37.264C146.609 34.864 145.505 31.52 145.505 27.232C145.505 24.512 146.001 22.144 146.993 20.128C148.017 18.08 149.457 16.496 151.313 15.376C153.201 14.256 155.425 13.696 157.985 13.696ZM157.985 19.264C156.449 19.264 155.297 19.92 154.529 21.232C153.761 22.512 153.377 24.512 153.377 27.232C153.377 30.016 153.745 32.048 154.481 33.328C155.249 34.608 156.417 35.248 157.985 35.248C159.521 35.248 160.673 34.608 161.441 33.328C162.209 32.016 162.593 30 162.593 27.28C162.593 24.496 162.209 22.464 161.441 21.184C160.705 19.904 159.553 19.264 157.985 19.264Z" fill="#141414"/>
<path d="M204.223 22.384C206.431 22.8 208.223 23.616 209.599 24.832C211.007 26.048 211.711 27.872 211.711 30.304C211.711 33.856 210.431 36.368 207.871 37.84C205.343 39.28 201.791 40 197.215 40H186.511V6.736H195.919C200.591 6.736 204.159 7.408 206.623 8.752C209.087 10.064 210.319 12.224 210.319 15.232C210.319 17.184 209.727 18.768 208.543 19.984C207.391 21.168 205.951 21.968 204.223 22.384ZM194.383 12.304V20.032H197.311C200.639 20.032 202.303 18.688 202.303 16C202.303 14.656 201.855 13.712 200.959 13.168C200.063 12.592 198.639 12.304 196.687 12.304H194.383ZM197.263 34.288C199.343 34.288 200.911 33.984 201.967 33.376C203.055 32.736 203.599 31.568 203.599 29.872C203.599 26.8 201.679 25.264 197.839 25.264H194.383V34.288H197.263Z" fill="#141414"/>
<path d="M223.576 14.512V40H215.992V14.512H223.576ZM219.736 1.072C221.048 1.072 222.12 1.488 222.952 2.32C223.816 3.12 224.248 4.144 224.248 5.392C224.248 6.64 223.816 7.68 222.952 8.512C222.12 9.312 221.048 9.712 219.736 9.712C218.424 9.712 217.352 9.312 216.52 8.512C215.688 7.68 215.272 6.64 215.272 5.392C215.272 4.144 215.688 3.12 216.52 2.32C217.352 1.488 218.424 1.072 219.736 1.072Z" fill="#141414"/>
<path d="M249.794 32.608C249.794 33.568 249.922 34.272 250.178 34.72C250.466 35.168 250.914 35.504 251.522 35.728L249.938 40.672C248.37 40.544 247.09 40.208 246.098 39.664C245.106 39.088 244.338 38.192 243.794 36.976C242.13 39.536 239.57 40.816 236.114 40.816C233.586 40.816 231.57 40.08 230.066 38.608C228.562 37.136 227.81 35.216 227.81 32.848C227.81 30.064 228.834 27.936 230.882 26.464C232.93 24.992 235.89 24.256 239.762 24.256H242.354V23.152C242.354 21.648 242.034 20.624 241.394 20.08C240.754 19.504 239.634 19.216 238.034 19.216C237.202 19.216 236.194 19.344 235.01 19.6C233.826 19.824 232.61 20.144 231.362 20.56L229.634 15.568C231.234 14.96 232.866 14.496 234.53 14.176C236.226 13.856 237.794 13.696 239.234 13.696C242.882 13.696 245.554 14.448 247.25 15.952C248.946 17.456 249.794 19.712 249.794 22.72V32.608ZM238.322 35.392C240.05 35.392 241.394 34.576 242.354 32.944V28.432H240.482C238.754 28.432 237.458 28.736 236.594 29.344C235.762 29.952 235.346 30.896 235.346 32.176C235.346 33.2 235.602 34 236.114 34.576C236.658 35.12 237.394 35.392 238.322 35.392Z" fill="#141414"/>
<path d="M270.763 13.696C272.971 13.696 274.699 14.368 275.947 15.712C277.195 17.056 277.819 18.944 277.819 21.376V40H270.235V22.672C270.235 21.392 270.027 20.512 269.611 20.032C269.227 19.52 268.635 19.264 267.835 19.264C266.299 19.264 264.827 20.368 263.419 22.576V40H255.835V14.512H262.459L262.987 17.536C264.075 16.256 265.243 15.296 266.491 14.656C267.771 14.016 269.195 13.696 270.763 13.696Z" fill="#141414"/>
<path d="M294.578 13.696C296.338 13.696 297.922 13.952 299.33 14.464C300.738 14.976 302.066 15.76 303.314 16.816L300.05 21.328C298.45 20.112 296.834 19.504 295.202 19.504C293.506 19.504 292.226 20.128 291.362 21.376C290.498 22.624 290.066 24.64 290.066 27.424C290.066 30.112 290.498 32.016 291.362 33.136C292.226 34.256 293.474 34.816 295.106 34.816C295.97 34.816 296.754 34.688 297.458 34.432C298.162 34.144 299.01 33.696 300.002 33.088L303.314 37.792C300.786 39.808 297.922 40.816 294.722 40.816C292.13 40.816 289.89 40.272 288.002 39.184C286.114 38.064 284.658 36.512 283.634 34.528C282.61 32.512 282.098 30.16 282.098 27.472C282.098 24.784 282.61 22.4 283.634 20.32C284.658 18.24 286.114 16.624 288.002 15.472C289.89 14.288 292.082 13.696 294.578 13.696Z" fill="#141414"/>
<path d="M321.435 13.696C323.643 13.696 325.371 14.368 326.619 15.712C327.867 17.056 328.491 18.944 328.491 21.376V40H320.907V22.672C320.907 21.392 320.699 20.512 320.283 20.032C319.867 19.52 319.275 19.264 318.507 19.264C316.971 19.264 315.499 20.352 314.091 22.528V40H306.507V4.384L314.091 3.616V17.248C315.147 16.064 316.267 15.184 317.451 14.608C318.635 14 319.963 13.696 321.435 13.696Z" fill="#141414"/>
<path d="M341.794 14.512V40H334.21V14.512H341.794ZM337.954 1.072C339.266 1.072 340.338 1.488 341.17 2.32C342.034 3.12 342.466 4.144 342.466 5.392C342.466 6.64 342.034 7.68 341.17 8.512C340.338 9.312 339.266 9.712 337.954 9.712C336.642 9.712 335.57 9.312 334.738 8.512C333.906 7.68 333.49 6.64 333.49 5.392C333.49 4.144 333.906 3.12 334.738 2.32C335.57 1.488 336.642 1.072 337.954 1.072Z" fill="#141414"/>
<path d="M362.685 13.696C364.893 13.696 366.621 14.368 367.869 15.712C369.117 17.056 369.741 18.944 369.741 21.376V40H362.157V22.672C362.157 21.392 361.949 20.512 361.533 20.032C361.149 19.52 360.557 19.264 359.757 19.264C358.221 19.264 356.749 20.368 355.341 22.576V40H347.757V14.512H354.381L354.909 17.536C355.997 16.256 357.165 15.296 358.413 14.656C359.693 14.016 361.117 13.696 362.685 13.696Z" fill="#141414"/>
<path d="M383.044 14.512V40H375.46V14.512H383.044ZM379.204 1.072C380.516 1.072 381.588 1.488 382.42 2.32C383.284 3.12 383.716 4.144 383.716 5.392C383.716 6.64 383.284 7.68 382.42 8.512C381.588 9.312 380.516 9.712 379.204 9.712C377.892 9.712 376.82 9.312 375.988 8.512C375.156 7.68 374.74 6.64 374.74 5.392C374.74 4.144 375.156 3.12 375.988 2.32C376.82 1.488 377.892 1.072 379.204 1.072Z" fill="#141414"/>
<path d="M408.414 6.736V33.76H421.374L420.558 40H400.542V6.736H408.414Z" fill="#141414"/>
<path d="M434.828 13.696C438.732 13.696 441.788 14.896 443.996 17.296C446.204 19.664 447.308 22.992 447.308 27.28C447.308 30 446.796 32.384 445.772 34.432C444.78 36.448 443.34 38.016 441.452 39.136C439.596 40.256 437.388 40.816 434.828 40.816C430.956 40.816 427.9 39.632 425.66 37.264C423.452 34.864 422.348 31.52 422.348 27.232C422.348 24.512 422.844 22.144 423.836 20.128C424.86 18.08 426.3 16.496 428.156 15.376C430.044 14.256 432.268 13.696 434.828 13.696ZM434.828 19.264C433.292 19.264 432.14 19.92 431.372 21.232C430.604 22.512 430.22 24.512 430.22 27.232C430.22 30.016 430.588 32.048 431.324 33.328C432.092 34.608 433.26 35.248 434.828 35.248C436.364 35.248 437.516 34.608 438.284 33.328C439.052 32.016 439.436 30 439.436 27.28C439.436 24.496 439.052 22.464 438.284 21.184C437.548 19.904 436.396 19.264 434.828 19.264Z" fill="#141414"/>
<path d="M460.796 13.696C462.62 13.696 464.332 13.968 465.932 14.512C467.532 15.056 468.94 15.824 470.156 16.816L467.372 21.088C465.292 19.776 463.196 19.12 461.084 19.12C460.092 19.12 459.324 19.296 458.78 19.648C458.268 19.968 458.012 20.432 458.012 21.04C458.012 21.52 458.124 21.92 458.348 22.24C458.604 22.528 459.1 22.832 459.836 23.152C460.572 23.472 461.708 23.856 463.244 24.304C465.9 25.072 467.868 26.08 469.148 27.328C470.46 28.544 471.116 30.24 471.116 32.416C471.116 34.144 470.62 35.648 469.628 36.928C468.636 38.176 467.276 39.136 465.548 39.808C463.82 40.48 461.9 40.816 459.788 40.816C457.644 40.816 455.644 40.48 453.788 39.808C451.964 39.136 450.412 38.208 449.132 37.024L452.828 32.896C454.972 34.56 457.228 35.392 459.596 35.392C460.748 35.392 461.644 35.184 462.284 34.768C462.956 34.352 463.292 33.76 463.292 32.992C463.292 32.384 463.164 31.904 462.908 31.552C462.652 31.2 462.156 30.88 461.42 30.592C460.684 30.272 459.516 29.888 457.916 29.44C455.388 28.704 453.5 27.68 452.252 26.368C451.004 25.056 450.38 23.424 450.38 21.472C450.38 20 450.796 18.688 451.628 17.536C452.492 16.352 453.708 15.424 455.276 14.752C456.876 14.048 458.716 13.696 460.796 13.696Z" fill="#141414"/>
<path d="M482.607 14.512V40H475.023V14.512H482.607ZM478.767 1.072C480.079 1.072 481.151 1.488 481.983 2.32C482.847 3.12 483.279 4.144 483.279 5.392C483.279 6.64 482.847 7.68 481.983 8.512C481.151 9.312 480.079 9.712 478.767 9.712C477.455 9.712 476.383 9.312 475.551 8.512C474.719 7.68 474.303 6.64 474.303 5.392C474.303 4.144 474.719 3.12 475.551 2.32C476.383 1.488 477.455 1.072 478.767 1.072Z" fill="#141414"/>
</svg>
